<?xml version="1.0" encoding="UTF-8" standalone="no"?>
<!-- Generator: Adobe Illustrator 19.0.0, SVG Export Plug-In . SVG Version: 6.00 Build 0)  -->

<svg
   xmlns:dc="http://purl.org/dc/elements/1.1/"
   xmlns:cc="http://creativecommons.org/ns#"
   xmlns:rdf="http://www.w3.org/1999/02/22-rdf-syntax-ns#"
   xmlns:svg="http://www.w3.org/2000/svg"
   xmlns="http://www.w3.org/2000/svg"
   xmlns:sodipodi="http://sodipodi.sourceforge.net/DTD/sodipodi-0.dtd"
   xmlns:inkscape="http://www.inkscape.org/namespaces/inkscape"
   version="1.1"
   id="Capa_1"
   x="0px"
   y="0px"
   viewBox="0 0 512 512"
   style="enable-background:new 0 0 512 512;"
   xml:space="preserve"
   sodipodi:docname="space-station.svg"
   inkscape:version="0.92.5 (2060ec1f9f, 2020-04-08)"><metadata
   id="metadata2529"><rdf:RDF><cc:Work
       rdf:about=""><dc:format>image/svg+xml</dc:format><dc:type
         rdf:resource="http://purl.org/dc/dcmitype/StillImage" /></cc:Work></rdf:RDF></metadata><defs
   id="defs2527"><linearGradient
     x1="0"
     y1="0"
     x2="1"
     y2="0"
     gradientUnits="userSpaceOnUse"
     gradientTransform="matrix(42.050507,42.050507,42.050507,-42.050507,456.45557,219.50879)"
     spreadMethod="pad"
     id="linearGradient870"><stop
       style="stop-opacity:1;stop-color:#540044"
       offset="0"
       id="stop864" /><stop
       style="stop-opacity:1;stop-color:#540044"
       offset="0.92575455"
       id="stop866" /><stop
       style="stop-opacity:1;stop-color:#00adfd"
       offset="1"
       id="stop868" /></linearGradient><linearGradient
     x1="0"
     y1="0"
     x2="1"
     y2="0"
     gradientUnits="userSpaceOnUse"
     gradientTransform="matrix(42.050507,42.050507,42.050507,-42.050507,456.45557,219.50879)"
     spreadMethod="pad"
     id="linearGradient12108"><stop
       style="stop-opacity:1;stop-color:#540044"
       offset="0"
       id="stop857" /><stop
       style="stop-opacity:1;stop-color:#540044"
       offset="0.79908746"
       id="stop859" /><stop
       style="stop-opacity:1;stop-color:#00adfd"
       offset="1"
       id="stop861" /></linearGradient><clipPath
     id="clipPath12144-9"
     clipPathUnits="userSpaceOnUse"><path
       inkscape:connector-curvature="0"
       id="path12142-7"
       d="m 474.897,254.381 c -27.33,-15.777 -46.792,-33.231 -43.469,-38.986 v 0 c 2.193,-3.801 13.784,-1.541 29.276,4.978 v 0 l -0.647,0.538 c -12.497,-4.438 -21.422,-5.258 -23.068,-2.404 v 0 c -2.685,4.649 14.334,18.402 39.617,32.998 v 0 c 25.282,14.595 46.016,22.261 48.699,17.613 v 0 c 1.657,-2.872 -3.729,-10.193 -14.042,-18.812 v 0 l 0.103,-0.698 c 13.442,10.182 21.228,19.119 19.029,22.927 v 0 c -0.724,1.254 -2.47,1.849 -5.041,1.849 v 0 c -9.227,0 -29.083,-7.661 -50.457,-20.003" /></clipPath><linearGradient
     id="linearGradient12160"
     spreadMethod="pad"
     gradientTransform="matrix(-15.56402,21.825434,21.825434,15.56402,488.97705,232.65332)"
     gradientUnits="userSpaceOnUse"
     y2="0"
     x2="1"
     y1="0"
     x1="0"><stop
       id="stop12150"
       offset="0"
       style="stop-opacity:1;stop-color:#00adfd" /><stop
       id="stop12152"
       offset="0.1370926"
       style="stop-opacity:1;stop-color:#99009c" /><stop
       id="stop12154"
       offset="0.514222"
       style="stop-opacity:1;stop-color:#99009c" /><stop
       id="stop12156"
       offset="0.90240111"
       style="stop-opacity:1;stop-color:#99009c" /><stop
       id="stop12158"
       offset="1"
       style="stop-opacity:1;stop-color:#00adfd" /></linearGradient><clipPath
     id="clipPath12118-3"
     clipPathUnits="userSpaceOnUse"><path
       inkscape:connector-curvature="0"
       id="path12116-7"
       d="m 474.259,255.488 c -29.046,-16.771 -49.616,-35.524 -45.942,-41.886 v 0 c 2.534,-4.387 15.929,-1.739 33.523,5.823 v 0 l -0.206,0.172 c -16.377,-6.701 -28.817,-8.79 -31.151,-4.746 v 0 c -3.469,6.005 16.299,23.91 44.149,39.988 v 0 c 27.851,16.083 53.24,24.246 56.708,18.242 v 0 c 2.34,-4.054 -5.736,-13.823 -19.794,-24.688 v 0 l 0.038,-0.268 c 15.417,11.491 24.459,21.808 21.921,26.206 v 0 c -0.831,1.438 -2.831,2.12 -5.763,2.12 v 0 c -10.036,10e-4 -31.003,-7.985 -53.483,-20.963" /></clipPath><linearGradient
     id="linearGradient12134"
     spreadMethod="pad"
     gradientTransform="matrix(-15.564951,21.826738,21.826738,15.564951,488.97852,232.65332)"
     gradientUnits="userSpaceOnUse"
     y2="0"
     x2="1"
     y1="0"
     x1="0"><stop
       id="stop12124"
       offset="0"
       style="stop-opacity:1;stop-color:#00adfd" /><stop
       id="stop12126"
       offset="0.1370926"
       style="stop-opacity:1;stop-color:#99009c" /><stop
       id="stop12128"
       offset="0.514222"
       style="stop-opacity:1;stop-color:#99009c" /><stop
       id="stop12130"
       offset="0.90240111"
       style="stop-opacity:1;stop-color:#99009c" /><stop
       id="stop12132"
       offset="1"
       style="stop-opacity:1;stop-color:#00adfd" /></linearGradient><clipPath
     id="clipPath12096-3"
     clipPathUnits="userSpaceOnUse"><path
       inkscape:connector-curvature="0"
       id="path12094-1"
       d="m 450.086,243.966 c 0,-17.026 13.801,-30.826 30.825,-30.826 v 0 c 17.024,0 30.825,13.8 30.825,30.826 v 0 c 0,17.025 -13.801,30.826 -30.825,30.826 v 0 c -17.024,0 -30.825,-13.801 -30.825,-30.826" /></clipPath><linearGradient
     id="linearGradient12108-9"
     spreadMethod="pad"
     gradientTransform="matrix(42.050507,42.050507,42.050507,-42.050507,456.45557,219.50879)"
     gradientUnits="userSpaceOnUse"
     y2="0"
     x2="1"
     y1="0"
     x1="0"><stop
       id="stop12102"
       offset="0"
       style="stop-opacity:1;stop-color:#540044" /><stop
       id="stop12104"
       offset="0.12873456"
       style="stop-opacity:1;stop-color:#540044" /><stop
       id="stop12106"
       offset="1"
       style="stop-opacity:1;stop-color:#00adfd" /></linearGradient></defs><sodipodi:namedview
   pagecolor="#ffffff"
   bordercolor="#666666"
   borderopacity="1"
   objecttolerance="10"
   gridtolerance="10"
   guidetolerance="10"
   inkscape:pageopacity="0"
   inkscape:pageshadow="2"
   inkscape:window-width="1920"
   inkscape:window-height="1016"
   id="namedview2525"
   showgrid="false"
   inkscape:zoom="0.921875"
   inkscape:cx="406.96124"
   inkscape:cy="219.06672"
   inkscape:window-x="0"
   inkscape:window-y="27"
   inkscape:window-maximized="1"
   inkscape:current-layer="g4068" />
<g
   id="g2492"
   transform="translate(3.0681243,-96.645917)">
	
	
	
	
	
	
	
	
	
	
	
	
	
	
	
	
	
	
	
	
	
	
	
	
	
	
	
	
	
	
	
	
	
	
	
	
	
	
	
	
	
	
	
	
	
	
	
	
	
	
	
	
	
	
	
	
	
	
	
	
</g>
<g
   id="g2494">
</g>
<g
   id="g2496">
</g>
<g
   id="g2498">
</g>
<g
   id="g2500">
</g>
<g
   id="g2502">
</g>
<g
   id="g2504">
</g>
<g
   id="g2506">
</g>
<g
   id="g2508">
</g>
<g
   id="g2510">
</g>
<g
   id="g2512">
</g>
<g
   id="g2514">
</g>
<g
   id="g2516">
</g>
<g
   id="g2518">
</g>
<g
   id="g2520">
</g>
<g
   id="g2522">
</g>
<g
   id="g4068"
   transform="matrix(0.31004026,0,0,0.31004026,226.86883,9.6762077)"><path
     inkscape:connector-curvature="0"
     id="path2364"
     d="m 247.69277,1060.5343 v 25.355 c 0,13.9883 11.32868,25.3296 25.32963,25.3296 h 101.3185 v -50.6846 z"
     style="fill:#99009c;fill-opacity:1;stroke-width:3.16620302" /><path
     inkscape:connector-curvature="0"
     id="path2366"
     d="m 551.63554,1009.8751 v 50.6592 H 425.00325 v 50.6846 h 101.30903 c 14.00099,0 25.3296,-11.3413 25.3296,-25.3296 V 984.57082 c 0,-13.9883 -11.32861,-25.3297 -25.3296,-25.3297 h -101.3122 v 50.63398 z"
     style="fill:#5c546a;stroke-width:3.16620302" /><path
     inkscape:connector-curvature="0"
     id="path2368"
     d="M 374.3409,959.24112 H 273.0224 c -14.00095,0 -25.32963,11.3414 -25.32963,25.3297 v 25.30428 H 374.3409 Z"
     style="fill:#5c546a;stroke-width:3.16620302" /><path
     inkscape:connector-curvature="0"
     id="path2370"
     d="m 193.84199,1060.5343 h 53.85078 126.64813 v 50.6846 h 50.65918 v -50.6846 h 126.6323 v -50.6592 H 425.00008 V 959.24112 H 374.3409 v 50.63398 H 247.69277 193.82932 c 2.08653,8.1023 3.19787,16.5972 3.19787,25.3549 0,8.7387 -1.10817,17.2178 -3.1852,25.3043 z"
     style="fill:#888693;stroke-width:3.16620302" /><path
     inkscape:connector-curvature="0"
     id="path2372"
     d="m -182.92352,1111.2189 h 101.318501 c 14.000951,0 25.329625,-11.3413 25.329625,-25.3296 v -25.355 H -182.92352 Z"
     style="fill:#5c546a;stroke-width:3.16620302" /><path
     inkscape:connector-curvature="0"
     id="path2374"
     d="m -56.275394,1009.8751 v -25.30428 c 0,-13.9883 -11.328674,-25.3297 -25.329625,-25.3297 H -182.92352 v 50.63398 z"
     style="fill:#5c546a;stroke-width:3.16620302" /><path
     inkscape:connector-curvature="0"
     id="path2376"
     d="m -360.21823,1060.5343 v -50.6592 h 126.63226 v -50.63398 h -101.30897 c -14.00095,0 -25.32962,11.3414 -25.32962,25.3297 v 101.31848 c 0,13.9883 11.32867,25.3296 25.32962,25.3296 h 101.31214 v -50.6846 z"
     style="fill:#99009c;fill-opacity:1;stroke-width:3.16620302" /><path
     inkscape:connector-curvature="0"
     id="path2378"
     d="M -2.4119458,1009.8751 H -56.27856 -182.92669 v -50.63398 h -50.65928 v 50.63398 h -126.63226 v 50.6592 h 126.63226 v 50.6846 h 50.65928 v -50.6846 h 126.64813 53.8539493 c -2.0801954,-8.0865 -3.1852003,-16.5656 -3.1852003,-25.3043 0,-8.7545 1.1113373,-17.2495 3.1978652,-25.3549 z"
     style="fill:#888693;stroke-width:3.16620302" /><path
     inkscape:connector-curvature="0"
     id="path2380"
     d="m 728.94932,807.23812 v 50.6592 h -126.6418 v 50.6846 h 101.31854 c 14.00085,0 25.32959,-11.3413 25.32959,-25.3296 v -101.3185 c 0,-13.9883 -11.32874,-25.3297 -25.32959,-25.3297 H 602.30752 v 50.634 z"
     style="fill:#99009c;fill-opacity:1;stroke-width:3.16620302" /><path
     inkscape:connector-curvature="0"
     id="path2382"
     d="M 374.3409,756.60412 H 273.0224 c -14.00095,0 -25.32963,11.3414 -25.32963,25.3297 v 25.3043 H 374.3409 Z"
     style="fill:#5c546a;stroke-width:3.16620302" /><rect
     id="rect2384"
     height="50.684578"
     width="126.64812"
     style="fill:#5c546a;stroke-width:3.16620302"
     y="857.89685"
     x="425.00015" /><rect
     id="rect2386"
     height="50.633919"
     width="126.64812"
     style="fill:#5c546a;stroke-width:3.16620302"
     y="756.60388"
     x="425.00015" /><path
     inkscape:connector-curvature="0"
     id="path2388"
     d="m 247.69277,857.89732 v 25.355 c 0,13.9883 11.32868,25.3296 25.32963,25.3296 h 101.3185 v -50.6846 z"
     style="fill:#5c546a;stroke-width:3.16620302" /><polygon
     id="polygon2390"
     points="400.002,247.992 360.002,247.992 360.002,232 344.002,232 344.002,247.992 304.002,247.992 288,247.992 288,263.992 304.002,263.992 344.002,263.992 344.002,280 360.002,280 360.002,263.992 400.002,263.992 400.002,280 416.002,280 416.002,263.992 456,263.992 456,247.992 416.002,247.992 416.002,232 400.002,232 "
     style="fill:#888693"
     transform="matrix(3.1662031,0,0,3.1662031,-714.83931,22.045035)" /><path
     inkscape:connector-curvature="0"
     id="path2392"
     d="m -182.91719,908.58192 h 101.318504 c 14.00095,0 25.329625,-11.3413 25.329625,-25.3296 v -25.3043 H -182.91719 Z"
     style="fill:#5c546a;stroke-width:3.16620302" /><rect
     id="rect2394"
     height="50.633919"
     width="126.64812"
     style="fill:#5c546a;stroke-width:3.16620302"
     y="857.94482"
     x="-360.22461" /><rect
     id="rect2396"
     height="50.684578"
     width="126.64812"
     style="fill:#99009c;fill-opacity:1;stroke-width:3.16620302"
     y="756.60388"
     x="-360.22461" /><path
     inkscape:connector-curvature="0"
     id="path2398"
     d="m -537.52561,857.94482 v -50.6592 h 126.6418 v -50.6815 h -101.3185 c -14.00095,0 -25.32963,11.3414 -25.32963,25.3297 v 101.3185 c 0,13.9883 11.32868,25.3296 25.32963,25.3296 h 101.3185 v -50.6339 h -126.6418 z"
     style="fill:#5c546a;stroke-width:3.16620302" /><path
     inkscape:connector-curvature="0"
     id="path2400"
     d="m -56.269061,807.28562 v -25.3518 c 0,-13.9883 -11.328675,-25.3297 -25.329625,-25.3297 H -182.91719 v 50.6846 h 126.648129 z"
     style="fill:#5c546a;stroke-width:3.16620302" /><path
     inkscape:connector-curvature="0"
     id="path2402"
     d="m 95.708689,1313.8559 h 50.659251 c 14.00095,0 25.32962,-11.3413 25.32962,-25.3296 v -116.1617 c 0,-13.5292 -5.26856,-26.2446 -14.84316,-35.8192 l -12.45584,-12.4559 c -14.45055,7.9377 -31.04145,12.459 -48.689871,12.459 z"
     style="fill:#888693;stroke-width:3.16620302" /><path
     inkscape:connector-curvature="0"
     id="path2404"
     d="m 47.018786,1124.0927 -12.455812,12.4558 c -9.571432,9.5715 -14.84316,22.2869 -14.84316,35.8193 v 116.1585 c 0,13.9883 11.328675,25.3296 25.329593,25.3296 h 50.659282 v -177.3074 c -17.648416,0 -34.23932,-4.5213 -48.689903,-12.4558 z"
     style="fill:#5c546a;stroke-width:3.16620302" /><path
     inkscape:connector-curvature="0"
     id="path2406"
     d="m 95.708689,933.91152 v -177.3074 c -33.840379,0 -64.552549,-13.298 -87.2700567,-34.9168 -8.67856279,9.0965 -14.0484433,21.3782 -14.0484433,34.9168 v 50.6846 h -50.65925 -126.648129 v -50.6846 h -50.65925 v 50.6846 h -126.64812 v -50.6846 h -50.65925 v 50.6846 h -126.6418 v 50.6593 h 126.6418 v 50.6339 h 50.65925 v -50.6339 h 126.64812 v 50.6339 h 50.65925 v -50.6339 h 126.648129 50.65925 v 75.9635 c 0,16.5466 8.0073277,31.2156 20.311193,40.4673 18.48746,-24.5729 47.888791,-40.4673 81.007307,-40.4673 z"
     style="fill:#888693;stroke-width:3.16620302" /><path
     inkscape:connector-curvature="0"
     id="path2408"
     d="m 95.708689,933.91152 c 33.118481,0 62.519851,15.8944 81.007311,40.4673 12.3007,-9.2517 20.31119,-23.9207 20.31119,-40.4673 v -76.0142 -50.6592 -50.634 c 0,-13.5386 -5.36988,-25.8203 -14.04844,-34.9168 -22.71751,21.6188 -53.43285,34.9168 -87.270061,34.9168 z"
     style="fill:#b6b8be;stroke-width:3.16620302" /><rect
     id="rect2410"
     height="0.025329627"
     width="50.659248"
     style="fill:#b6b8be;stroke-width:3.16620302"
     y="503.30762"
     x="-56.269115" /><path
     inkscape:connector-curvature="0"
     id="path2412"
     d="M -5.6319744,553.98932 H -56.269061 v 25.3075 c 0,13.9883 -11.328675,25.3296 -25.329625,25.3296 h -75.988874 v 50.6592 c 0,27.9766 22.67951,50.6593 50.65925,50.6593 H -5.609811 c -15.900672,-21.1692 -25.329625,-47.4772 -25.329625,-75.9889 0,-28.5021 9.419454,-54.8006 25.3074616,-75.9667 z"
     style="fill:#b6b8be;stroke-width:3.16620302" /><path
     inkscape:connector-curvature="0"
     id="path2414"
     d="M 551.64188,604.62642 H 424.99375 374.33457 273.01606 c -14.00095,0 -25.32962,-11.3413 -25.32962,-25.3296 v -25.355 h -50.65925 v -50.6592 -50.634 c 0,-27.9385 -22.73334,-50.6592 -50.65925,-50.6592 H 121.03831 95.708689 v 101.3185 c 69.944591,0 126.648121,56.7035 126.648121,126.6481 0,28.5117 -9.42578,54.8197 -25.32962,75.9889 h 430.60363 c 27.97976,0 50.65918,-22.6827 50.65918,-50.6593 v -50.6592 h -75.98881 z"
     style="fill:#b6b8be;stroke-width:3.16620302" /><path
     inkscape:connector-curvature="0"
     id="path2416"
     d="M 374.33457,452.64862 H 273.01606 c -14.00095,0 -25.32962,11.3414 -25.32962,25.3297 v 25.3043 h 126.64813 z"
     style="fill:#5c546a;stroke-width:3.16620302" /><rect
     id="rect2418"
     height="50.633919"
     width="126.64812"
     style="fill:#5c546a;stroke-width:3.16620302"
     y="452.64844"
     x="602.30115" /><path
     inkscape:connector-curvature="0"
     id="path2420"
     d="m 880.92703,452.64862 h -101.3185 v 50.634 h 126.6418 v 50.6592 h -126.6418 v 50.6846 h 101.3185 c 14.00099,0 25.32963,-11.3413 25.32963,-25.3296 v -101.3185 c 0,-13.9883 -11.32864,-25.3297 -25.32963,-25.3297 z"
     style="fill:#5c546a;stroke-width:3.16620302" /><rect
     id="rect2422"
     height="50.633919"
     width="126.64812"
     style="fill:#99009c;fill-opacity:1;stroke-width:3.16620302"
     y="452.64844"
     x="424.99377" /><polygon
     id="polygon2424"
     points="456,167.992 416,167.992 416,184 440,184 456,184 "
     style="fill:#5c546a"
     transform="matrix(3.1662031,0,0,3.1662031,-714.83931,22.045035)" /><rect
     id="rect2426"
     height="50.684578"
     width="126.64812"
     style="fill:#5c546a;stroke-width:3.16620302"
     y="553.94177"
     x="424.99377" /><path
     inkscape:connector-curvature="0"
     id="path2428"
     d="m 273.01606,604.62642 h 101.31851 v -50.6846 H 247.68644 v 25.355 c 0,13.9883 11.32867,25.3296 25.32962,25.3296 z"
     style="fill:#5c546a;stroke-width:3.16620302" /><polygon
     id="polygon2430"
     points="304,151.992 288,151.992 288,167.992 304,167.992 344,167.992 344,184 360,184 360,167.992 400,167.992 400,184 416,184 416,167.992 456,167.992 456,184 472,184 472,167.992 511.998,167.992 511.998,151.992 472,151.992 472,136 456,136 456,151.992 416,151.992 416,136 400,136 400,151.992 360,151.992 360,136 344,136 344,151.992 "
     style="fill:#888693"
     transform="matrix(3.1662031,0,0,3.1662031,-714.83931,22.045035)" /><rect
     id="rect2432"
     height="50.684578"
     width="126.64812"
     style="fill:#5c546a;stroke-width:3.16620302"
     y="452.64844"
     x="-360.22461" /><path
     inkscape:connector-curvature="0"
     id="path2434"
     d="m -56.269061,503.33012 v -0.032 -25.3296 c 0,-13.9883 -11.328675,-25.3297 -25.329625,-25.3297 H -182.91719 v 50.6846 h 126.648129 z"
     style="fill:#5c546a;stroke-width:3.16620302" /><rect
     id="rect2436"
     height="50.684578"
     width="126.64812"
     style="fill:#99009c;fill-opacity:1;stroke-width:3.16620302"
     y="452.64844"
     x="-537.53198" /><path
     inkscape:connector-curvature="0"
     id="path2438"
     d="m -714.83298,553.98932 v -50.6592 h 126.64176 v -50.6815 h -101.31847 c -14.00095,0 -25.32962,11.3414 -25.32962,25.3297 v 101.3185 c 0,13.9883 11.32867,25.3296 25.32962,25.3296 h 101.31847 v -50.6339 h -126.64176 z"
     style="fill:#5c546a;stroke-width:3.16620302" /><rect
     id="rect2440"
     height="50.633919"
     width="126.64812"
     style="fill:#5c546a;stroke-width:3.16620302"
     y="553.98938"
     x="-360.22461" /><rect
     id="rect2442"
     height="50.633919"
     width="126.64812"
     style="fill:#5c546a;stroke-width:3.16620302"
     y="553.98938"
     x="-537.53198" /><path
     inkscape:connector-curvature="0"
     id="path2444"
     d="m -56.269061,579.29682 v -25.3043 H -182.91719 v 50.6339 h 25.32963 75.988874 c 14.00095,0 25.329625,-11.3413 25.329625,-25.3296 z"
     style="fill:#5c546a;stroke-width:3.16620302" /><path
     inkscape:connector-curvature="0"
     id="path2446"
     d="M -56.269061,553.98932 H -5.6319744 C 17.474976,523.21702 54.26309,503.30792 95.708689,503.30792 V 401.98942 H 70.379033 45.049407 c -27.92588,0 -50.659218,22.7207 -50.659218,50.6592 v 50.6593 0.032 h -50.65925 -126.648129 v -50.6849 h -50.65925 v 50.6845 h -126.64812 v -50.6845 h -50.65925 v 50.6845 h -126.64813 v -50.6845 h -50.65928 v 50.6845 h -126.64176 v 50.6593 h 126.64176 v 50.6339 h 50.65928 v -50.6339 h 126.64813 v 50.6339 h 50.65925 v -50.6339 h 126.64812 v 50.6339 h 50.65925 v -50.6339 h 126.648129 z"
     style="fill:#888693;stroke-width:3.16620302" /><path
     inkscape:connector-curvature="0"
     id="path2448"
     d="m 121.03831,401.98942 v -25.3296 c 0,-13.9883 -11.32867,-25.3297 -25.329621,-25.3297 -14.00095,0 -25.329656,11.3414 -25.329656,25.3297 v 25.3296 h 25.329656 z"
     style="fill:#5c546a;stroke-width:3.16620302" /><path
     inkscape:connector-curvature="0"
     id="path2450"
     d="m 95.708689,503.30792 c -41.445599,0 -78.233713,19.9091 -101.3406634,50.6846 -15.8880076,21.1629 -25.3074616,47.4614 -25.3074616,75.9635 0,28.5117 9.425787,54.8197 25.329625,75.9889 4.2363798,5.639 8.9508563,10.8886 14.0484433,15.7424 22.7175077,21.6188 53.4328437,34.9168 87.2700567,34.9168 33.837211,0 64.552551,-13.298 87.270061,-34.9168 5.09758,-4.8538 9.81523,-10.1034 14.04844,-15.7424 15.90067,-21.1692 25.32962,-47.4772 25.32962,-75.9889 0,-69.9446 -56.70353,-126.6481 -126.648121,-126.6481 z m -75.988875,126.6481 c 0,-41.968 34.020853,-75.9889 75.988875,-75.9889 41.968021,0 75.988871,34.0209 75.988871,75.9889 0,41.968 -34.02085,75.9889 -75.988871,75.9889 -41.968022,0 -75.988875,-34.0209 -75.988875,-75.9889 z"
     style="fill:#d5d9de;stroke-width:3.16620302" /><path
     inkscape:connector-curvature="0"
     id="path2452"
     d="m 95.708689,933.91152 c -33.118516,0 -62.519847,15.8944 -81.007307,40.4673 -7.8616823,10.4484 -13.75398632,22.4642 -17.1133278,35.49938 -2.0865279,8.1023 -3.1978652,16.5973 -3.1978652,25.355 0,8.7387 1.1050049,17.2178 3.1852003,25.3043 7.0384696,27.3718 25.2314727,50.2635 49.4402307,63.5552 14.453749,7.9345 31.044653,12.4558 48.693069,12.4558 17.648421,0 34.239321,-4.5213 48.689871,-12.4558 24.20879,-13.2917 42.40179,-36.1834 49.44026,-63.5552 2.0802,-8.0897 3.18837,-16.5688 3.18837,-25.3075 0,-8.7545 -1.11134,-17.2495 -3.19787,-25.3549 -3.35934,-13.03528 -9.24847,-25.05098 -17.11332,-35.49948 -18.48746,-24.5697 -47.88883,-40.4641 -81.007311,-40.4641 z M 45.049407,1035.23 c 0,-24.1834 16.958216,-44.37748 39.625064,-49.41808 0.49396,-0.1108 0.99099,-0.2184 1.491282,-0.3134 3.093381,-0.5921 6.278581,-0.9277 9.542936,-0.9277 3.495489,0 6.911791,0.3546 10.207841,1.029 4.09073,0.8359 7.97566,2.2195 11.64213,3.9799 9.63475,4.6195 17.61042,12.14558 22.69217,21.50488 0.0285,0.051 0.051,0.1076 0.0757,0.1614 1.314,2.438 2.39681,5.0153 3.30235,7.6749 0.40217,1.181 0.74725,2.3842 1.06384,3.6063 0.63327,2.4507 1.14617,4.9488 1.40896,7.5261 0.17414,1.7034 0.2628,3.4321 0.2628,5.1799 0,27.9766 -22.68268,50.6592 -50.659254,50.6592 -27.97657,0 -50.656083,-22.6858 -50.656083,-50.6624 z"
     style="fill:#d5d9de;stroke-width:3.16620302" /><path
     inkscape:connector-curvature="0"
     id="path2454"
     d="m 171.69756,629.95602 c 0,-41.968 -34.02085,-75.9889 -75.988871,-75.9889 -41.968022,0 -75.988875,34.0209 -75.988875,75.9889 0,41.968 34.020853,75.9889 75.988875,75.9889 41.968021,0 75.988871,-34.0209 75.988871,-75.9889 z m -75.988871,50.6593 c -27.979737,0 -50.659282,-22.6795 -50.659282,-50.6593 0,-24.1834 16.958216,-44.3775 39.625064,-49.4181 0.49396,-0.1108 0.99099,-0.2184 1.491282,-0.3134 3.093381,-0.5921 6.278581,-0.9277 9.542936,-0.9277 3.495489,0 6.911791,0.3546 10.207841,1.029 4.09073,0.8359 7.97566,2.2195 11.64213,3.9799 9.63475,4.6195 17.61042,12.1456 22.69217,21.5049 0.0285,0.054 0.051,0.1076 0.0757,0.1614 1.314,2.438 2.39681,5.0153 3.30235,7.6749 0.40217,1.181 0.74725,2.3873 1.06384,3.6063 1.05118,4.0686 1.67179,8.3113 1.67179,12.706 0.003,27.9766 -22.67955,50.6561 -50.656086,50.6561 z"
     style="fill:#b6b8be;stroke-width:3.16620302" /><path
     inkscape:connector-curvature="0"
     id="path2456"
     d="m 86.165753,580.22452 c 3.093381,-0.5921 6.278581,-0.9277 9.542936,-0.9277 -3.264355,0 -6.449555,0.3356 -9.542936,0.9277 z"
     style="fill:#ffcf00;stroke-width:3.16620302" /><path
     inkscape:connector-curvature="0"
     id="path2458"
     d="m 143.63234,613.64372 c 0.40214,1.181 0.74722,2.3874 1.06381,3.6063 -0.31662,-1.2189 -0.66173,-2.4253 -1.06381,-3.6063 z"
     style="fill:#ffcf00;stroke-width:3.16620302" /><path
     inkscape:connector-curvature="0"
     id="path2460"
     d="m 95.708689,579.29682 c 3.495489,0 6.911791,0.3543 10.207841,1.029 -3.29605,-0.6744 -6.712352,-1.029 -10.207841,-1.029 z"
     style="fill:#ffcf00;stroke-width:3.16620302" /><path
     inkscape:connector-curvature="0"
     id="path2462"
     d="m 140.254,605.80742 c 0.0285,0.054 0.051,0.1076 0.0757,0.1615 -0.0285,-0.051 -0.0481,-0.1077 -0.0757,-0.1615 z"
     style="fill:#ffcf00;stroke-width:3.16620302" /><g
     id="g2470"
     transform="matrix(3.1662031,0,0,3.1662031,-714.83931,22.045035)"><line
       id="line2464"
       y2="180.698"
       x2="244.698"
       y1="180.686"
       x1="244.687"
       style="fill:#ffcf00" /><g
       id="g2468"><path
         inkscape:connector-curvature="0"
         id="path2466"
         d="m 240,192 c 0,8.837 7.163,16 16,16 4.418,0 8.418,-1.791 11.314,-4.686 L 244.699,180.699 C 241.8,183.591 240,187.58 240,192 Z"
         style="fill:#0e8fdd;fill-opacity:1" /></g></g><path
     inkscape:connector-curvature="0"
     id="path2472"
     d="m 105.91653,580.32582 c 4.09073,0.8359 7.97566,2.2195 11.64213,3.9799 -3.66647,-1.7604 -7.54826,-3.144 -11.64213,-3.9799 z"
     style="fill:#ffcf00;stroke-width:3.16620302" /><path
     inkscape:connector-curvature="0"
     id="path2474"
     d="m 95.708689,984.57082 c 3.495489,0 6.911791,0.3546 10.207841,1.029 -3.29605,-0.6744 -6.712352,-1.029 -10.207841,-1.029 z"
     style="fill:#ff9300;stroke-width:3.16620302" /><path
     inkscape:connector-curvature="0"
     id="path2476"
     d="m 105.91653,985.59982 c 4.09073,0.8359 7.97566,2.2195 11.64213,3.9799 -3.66647,-1.7604 -7.54826,-3.144 -11.64213,-3.9799 z"
     style="fill:#ff9300;stroke-width:3.16620302" /><path
     inkscape:connector-curvature="0"
     id="path2478"
     d="m 86.165753,985.49852 c 3.093381,-0.5924 6.278581,-0.9277 9.542936,-0.9277 -3.264355,0 -6.449555,0.3353 -9.542936,0.9277 z"
     style="fill:#ff9300;stroke-width:3.16620302" /><g
     style="fill:#0e8fdd;fill-opacity:1"
     id="g2482"
     transform="matrix(3.1662031,0,0,3.1662031,-714.83931,22.045035)"><path
       inkscape:connector-curvature="0"
       id="path2480"
       d="m 240,320 c 0,8.836 7.163,16 16,16 4.418,0 8.418,-1.791 11.314,-4.686 L 244.699,308.699 C 241.8,311.591 240,315.58 240,320 Z"
       style="fill:#0e8fdd;fill-opacity:1" /></g><path
     inkscape:connector-curvature="0"
     id="path2484"
     d="m 143.63234,1018.9177 c 0.40214,1.181 0.74722,2.3874 1.06381,3.6064 -0.31662,-1.2222 -0.66173,-2.4254 -1.06381,-3.6064 z"
     style="fill:#ff9300;stroke-width:3.16620302" /><path
     inkscape:connector-curvature="0"
     id="path2486"
     d="m 140.254,1011.0814 c 0.0285,0.054 0.051,0.1076 0.0757,0.1615 -0.0285,-0.051 -0.0481,-0.1077 -0.0757,-0.1615 z"
     style="fill:#ff9300;stroke-width:3.16620302" /><path
     inkscape:connector-curvature="0"
     id="path2488"
     d="m 143.63234,613.64372 c -0.90553,-2.6596 -1.98838,-5.2337 -3.30235,-7.6748 -0.0285,-0.054 -0.0481,-0.1077 -0.0757,-0.1615 -5.08176,-9.3593 -13.06059,-16.8822 -22.69218,-21.5049 -3.66646,-1.7604 -7.55139,-3.1408 -11.64213,-3.9799 -3.29918,-0.6744 -6.71235,-1.029 -10.207838,-1.029 -3.267522,0 -6.449556,0.3356 -9.542936,0.9277 -0.500292,0.095 -0.994156,0.2026 -1.491282,0.3135 -9.555601,2.1245 -18.104349,6.9149 -24.785038,13.5956 l 71.641674,71.6417 c 9.163,-9.163 14.83367,-21.8278 14.83367,-35.8161 0,-4.3978 -0.62061,-8.6405 -1.67176,-12.706 -0.31662,-1.2189 -0.66177,-2.4253 -1.06384,-3.6063 z"
     style="fill:#00adfd;fill-opacity:1;stroke-width:3.16620302" /><path
     inkscape:connector-curvature="0"
     id="path2490"
     d="m 131.52795,1071.0493 c 9.16932,-9.1662 14.83999,-21.831 14.83999,-35.8193 0,-1.7477 -0.089,-3.4765 -0.2628,-5.1799 -0.26279,-2.5773 -0.77572,-5.0786 -1.40896,-7.526 -0.31662,-1.219 -0.66176,-2.4222 -1.06384,-3.6064 -0.90553,-2.6596 -1.98838,-5.2337 -3.30235,-7.6748 -0.0285,-0.054 -0.0481,-0.1077 -0.0757,-0.1615 -5.08176,-9.3593 -13.06059,-16.88218 -22.69218,-21.50488 -3.66646,-1.7604 -7.55139,-3.1408 -11.64213,-3.9799 -3.29918,-0.6747 -6.71235,-1.029 -10.207838,-1.029 -3.267522,0 -6.449556,0.3353 -9.542936,0.9274 -0.500292,0.095 -0.994156,0.2026 -1.491282,0.3134 -9.555601,2.1246 -18.104349,6.915 -24.785038,13.5957 z"
     style="fill:#2463ae;fill-opacity:1;stroke-width:3.16620302" /></g></svg>